<mxfile host="app.diagrams.net" agent="Mozilla/5.0 (X11; Linux x86_64) AppleWebKit/537.36 (KHTML, like Gecko) Chrome/123.0.0.0 Safari/537.36" version="24.7.6">
  <diagram name="Page-1" id="TwJ3v8vGoPVVe2mcMEZA">
    <mxGraphModel dx="1434" dy="793" grid="1" gridSize="10" guides="1" tooltips="1" connect="1" arrows="1" fold="1" page="1" pageScale="1" pageWidth="850" pageHeight="1100" math="0" shadow="0">
      <root>
        <mxCell id="0" />
        <mxCell id="1" parent="0" />
        <mxCell id="hGCilRiJ_WjDdyDnkMgZ-1" value="d" style="ellipse;whiteSpace=wrap;html=1;aspect=fixed;" vertex="1" parent="1">
          <mxGeometry x="160" y="300" width="30" height="30" as="geometry" />
        </mxCell>
        <mxCell id="hGCilRiJ_WjDdyDnkMgZ-2" value="c" style="ellipse;whiteSpace=wrap;html=1;aspect=fixed;direction=south;" vertex="1" parent="1">
          <mxGeometry x="210" y="360" width="30" height="30" as="geometry" />
        </mxCell>
        <mxCell id="hGCilRiJ_WjDdyDnkMgZ-3" value="abc" style="ellipse;whiteSpace=wrap;html=1;aspect=fixed;" vertex="1" parent="1">
          <mxGeometry x="240" y="300" width="30" height="30" as="geometry" />
        </mxCell>
        <mxCell id="hGCilRiJ_WjDdyDnkMgZ-4" value="b" style="ellipse;whiteSpace=wrap;html=1;aspect=fixed;" vertex="1" parent="1">
          <mxGeometry x="310" y="410" width="30" height="30" as="geometry" />
        </mxCell>
        <mxCell id="hGCilRiJ_WjDdyDnkMgZ-5" value="abcd" style="ellipse;whiteSpace=wrap;html=1;aspect=fixed;" vertex="1" parent="1">
          <mxGeometry x="200" y="230" width="30" height="30" as="geometry" />
        </mxCell>
        <mxCell id="hGCilRiJ_WjDdyDnkMgZ-6" value="ab" style="ellipse;whiteSpace=wrap;html=1;aspect=fixed;" vertex="1" parent="1">
          <mxGeometry x="280" y="360" width="30" height="30" as="geometry" />
        </mxCell>
        <mxCell id="hGCilRiJ_WjDdyDnkMgZ-7" value="a" style="ellipse;whiteSpace=wrap;html=1;aspect=fixed;" vertex="1" parent="1">
          <mxGeometry x="250" y="410" width="30" height="30" as="geometry" />
        </mxCell>
        <mxCell id="hGCilRiJ_WjDdyDnkMgZ-9" value="" style="endArrow=none;html=1;rounded=0;entryX=0;entryY=1;entryDx=0;entryDy=0;exitX=0.5;exitY=0;exitDx=0;exitDy=0;" edge="1" parent="1" source="hGCilRiJ_WjDdyDnkMgZ-1" target="hGCilRiJ_WjDdyDnkMgZ-5">
          <mxGeometry width="50" height="50" relative="1" as="geometry">
            <mxPoint x="100" y="320" as="sourcePoint" />
            <mxPoint x="150" y="270" as="targetPoint" />
          </mxGeometry>
        </mxCell>
        <mxCell id="hGCilRiJ_WjDdyDnkMgZ-10" value="" style="endArrow=none;html=1;rounded=0;entryX=0;entryY=1;entryDx=0;entryDy=0;exitX=0;exitY=0.5;exitDx=0;exitDy=0;" edge="1" parent="1" source="hGCilRiJ_WjDdyDnkMgZ-2" target="hGCilRiJ_WjDdyDnkMgZ-3">
          <mxGeometry width="50" height="50" relative="1" as="geometry">
            <mxPoint x="210" y="375" as="sourcePoint" />
            <mxPoint x="245" y="320" as="targetPoint" />
          </mxGeometry>
        </mxCell>
        <mxCell id="hGCilRiJ_WjDdyDnkMgZ-11" value="" style="endArrow=none;html=1;rounded=0;exitX=0.5;exitY=0;exitDx=0;exitDy=0;entryX=1;entryY=1;entryDx=0;entryDy=0;" edge="1" parent="1" source="hGCilRiJ_WjDdyDnkMgZ-3" target="hGCilRiJ_WjDdyDnkMgZ-5">
          <mxGeometry width="50" height="50" relative="1" as="geometry">
            <mxPoint x="185" y="320" as="sourcePoint" />
            <mxPoint x="220" y="260" as="targetPoint" />
          </mxGeometry>
        </mxCell>
        <mxCell id="hGCilRiJ_WjDdyDnkMgZ-12" value="" style="endArrow=none;html=1;rounded=0;entryX=0;entryY=1;entryDx=0;entryDy=0;exitX=0.5;exitY=0;exitDx=0;exitDy=0;" edge="1" parent="1" source="hGCilRiJ_WjDdyDnkMgZ-7" target="hGCilRiJ_WjDdyDnkMgZ-6">
          <mxGeometry width="50" height="50" relative="1" as="geometry">
            <mxPoint x="250" y="402.5" as="sourcePoint" />
            <mxPoint x="285" y="347.5" as="targetPoint" />
          </mxGeometry>
        </mxCell>
        <mxCell id="hGCilRiJ_WjDdyDnkMgZ-13" value="" style="endArrow=none;html=1;rounded=0;entryX=1;entryY=1;entryDx=0;entryDy=0;exitX=0.5;exitY=0;exitDx=0;exitDy=0;" edge="1" parent="1" source="hGCilRiJ_WjDdyDnkMgZ-4" target="hGCilRiJ_WjDdyDnkMgZ-6">
          <mxGeometry width="50" height="50" relative="1" as="geometry">
            <mxPoint x="330" y="405" as="sourcePoint" />
            <mxPoint x="365" y="350" as="targetPoint" />
          </mxGeometry>
        </mxCell>
        <mxCell id="hGCilRiJ_WjDdyDnkMgZ-14" value="" style="endArrow=none;html=1;rounded=0;entryX=1;entryY=1;entryDx=0;entryDy=0;exitX=0.5;exitY=0;exitDx=0;exitDy=0;" edge="1" parent="1" source="hGCilRiJ_WjDdyDnkMgZ-6" target="hGCilRiJ_WjDdyDnkMgZ-3">
          <mxGeometry width="50" height="50" relative="1" as="geometry">
            <mxPoint x="215" y="350" as="sourcePoint" />
            <mxPoint x="250" y="295" as="targetPoint" />
          </mxGeometry>
        </mxCell>
        <mxCell id="hGCilRiJ_WjDdyDnkMgZ-15" value="d" style="ellipse;whiteSpace=wrap;html=1;aspect=fixed;" vertex="1" parent="1">
          <mxGeometry x="320" y="300" width="30" height="30" as="geometry" />
        </mxCell>
        <mxCell id="hGCilRiJ_WjDdyDnkMgZ-16" value="a" style="ellipse;whiteSpace=wrap;html=1;aspect=fixed;direction=south;" vertex="1" parent="1">
          <mxGeometry x="370" y="360" width="30" height="30" as="geometry" />
        </mxCell>
        <mxCell id="hGCilRiJ_WjDdyDnkMgZ-17" value="abc" style="ellipse;whiteSpace=wrap;html=1;aspect=fixed;" vertex="1" parent="1">
          <mxGeometry x="400" y="300" width="30" height="30" as="geometry" />
        </mxCell>
        <mxCell id="hGCilRiJ_WjDdyDnkMgZ-18" value="c" style="ellipse;whiteSpace=wrap;html=1;aspect=fixed;" vertex="1" parent="1">
          <mxGeometry x="470" y="410" width="30" height="30" as="geometry" />
        </mxCell>
        <mxCell id="hGCilRiJ_WjDdyDnkMgZ-19" value="abcd" style="ellipse;whiteSpace=wrap;html=1;aspect=fixed;" vertex="1" parent="1">
          <mxGeometry x="360" y="230" width="30" height="30" as="geometry" />
        </mxCell>
        <mxCell id="hGCilRiJ_WjDdyDnkMgZ-20" value="bc" style="ellipse;whiteSpace=wrap;html=1;aspect=fixed;" vertex="1" parent="1">
          <mxGeometry x="440" y="360" width="30" height="30" as="geometry" />
        </mxCell>
        <mxCell id="hGCilRiJ_WjDdyDnkMgZ-21" value="b" style="ellipse;whiteSpace=wrap;html=1;aspect=fixed;" vertex="1" parent="1">
          <mxGeometry x="410" y="410" width="30" height="30" as="geometry" />
        </mxCell>
        <mxCell id="hGCilRiJ_WjDdyDnkMgZ-22" value="" style="endArrow=none;html=1;rounded=0;entryX=0;entryY=1;entryDx=0;entryDy=0;exitX=0.5;exitY=0;exitDx=0;exitDy=0;" edge="1" parent="1" source="hGCilRiJ_WjDdyDnkMgZ-15" target="hGCilRiJ_WjDdyDnkMgZ-19">
          <mxGeometry width="50" height="50" relative="1" as="geometry">
            <mxPoint x="260" y="320" as="sourcePoint" />
            <mxPoint x="310" y="270" as="targetPoint" />
          </mxGeometry>
        </mxCell>
        <mxCell id="hGCilRiJ_WjDdyDnkMgZ-23" value="" style="endArrow=none;html=1;rounded=0;entryX=0;entryY=1;entryDx=0;entryDy=0;exitX=0;exitY=0.5;exitDx=0;exitDy=0;" edge="1" parent="1" source="hGCilRiJ_WjDdyDnkMgZ-16" target="hGCilRiJ_WjDdyDnkMgZ-17">
          <mxGeometry width="50" height="50" relative="1" as="geometry">
            <mxPoint x="370" y="375" as="sourcePoint" />
            <mxPoint x="405" y="320" as="targetPoint" />
          </mxGeometry>
        </mxCell>
        <mxCell id="hGCilRiJ_WjDdyDnkMgZ-24" value="" style="endArrow=none;html=1;rounded=0;exitX=0.5;exitY=0;exitDx=0;exitDy=0;entryX=1;entryY=1;entryDx=0;entryDy=0;" edge="1" parent="1" source="hGCilRiJ_WjDdyDnkMgZ-17" target="hGCilRiJ_WjDdyDnkMgZ-19">
          <mxGeometry width="50" height="50" relative="1" as="geometry">
            <mxPoint x="345" y="320" as="sourcePoint" />
            <mxPoint x="380" y="260" as="targetPoint" />
          </mxGeometry>
        </mxCell>
        <mxCell id="hGCilRiJ_WjDdyDnkMgZ-25" value="" style="endArrow=none;html=1;rounded=0;entryX=0;entryY=1;entryDx=0;entryDy=0;exitX=0.5;exitY=0;exitDx=0;exitDy=0;" edge="1" parent="1" source="hGCilRiJ_WjDdyDnkMgZ-21" target="hGCilRiJ_WjDdyDnkMgZ-20">
          <mxGeometry width="50" height="50" relative="1" as="geometry">
            <mxPoint x="410" y="402.5" as="sourcePoint" />
            <mxPoint x="445" y="347.5" as="targetPoint" />
          </mxGeometry>
        </mxCell>
        <mxCell id="hGCilRiJ_WjDdyDnkMgZ-26" value="" style="endArrow=none;html=1;rounded=0;entryX=1;entryY=1;entryDx=0;entryDy=0;exitX=0.5;exitY=0;exitDx=0;exitDy=0;" edge="1" parent="1" source="hGCilRiJ_WjDdyDnkMgZ-18" target="hGCilRiJ_WjDdyDnkMgZ-20">
          <mxGeometry width="50" height="50" relative="1" as="geometry">
            <mxPoint x="490" y="405" as="sourcePoint" />
            <mxPoint x="525" y="350" as="targetPoint" />
          </mxGeometry>
        </mxCell>
        <mxCell id="hGCilRiJ_WjDdyDnkMgZ-27" value="" style="endArrow=none;html=1;rounded=0;entryX=1;entryY=1;entryDx=0;entryDy=0;exitX=0.5;exitY=0;exitDx=0;exitDy=0;" edge="1" parent="1" source="hGCilRiJ_WjDdyDnkMgZ-20" target="hGCilRiJ_WjDdyDnkMgZ-17">
          <mxGeometry width="50" height="50" relative="1" as="geometry">
            <mxPoint x="375" y="350" as="sourcePoint" />
            <mxPoint x="410" y="295" as="targetPoint" />
          </mxGeometry>
        </mxCell>
        <mxCell id="hGCilRiJ_WjDdyDnkMgZ-28" value="e" style="ellipse;whiteSpace=wrap;html=1;aspect=fixed;" vertex="1" parent="1">
          <mxGeometry x="460" y="300" width="30" height="30" as="geometry" />
        </mxCell>
        <mxCell id="hGCilRiJ_WjDdyDnkMgZ-29" value="c" style="ellipse;whiteSpace=wrap;html=1;aspect=fixed;direction=south;" vertex="1" parent="1">
          <mxGeometry x="510" y="360" width="30" height="30" as="geometry" />
        </mxCell>
        <mxCell id="hGCilRiJ_WjDdyDnkMgZ-30" value="abc" style="ellipse;whiteSpace=wrap;html=1;aspect=fixed;" vertex="1" parent="1">
          <mxGeometry x="540" y="300" width="30" height="30" as="geometry" />
        </mxCell>
        <mxCell id="hGCilRiJ_WjDdyDnkMgZ-31" value="b" style="ellipse;whiteSpace=wrap;html=1;aspect=fixed;" vertex="1" parent="1">
          <mxGeometry x="610" y="410" width="30" height="30" as="geometry" />
        </mxCell>
        <mxCell id="hGCilRiJ_WjDdyDnkMgZ-32" value="abce" style="ellipse;whiteSpace=wrap;html=1;aspect=fixed;" vertex="1" parent="1">
          <mxGeometry x="500" y="230" width="30" height="30" as="geometry" />
        </mxCell>
        <mxCell id="hGCilRiJ_WjDdyDnkMgZ-33" value="ab" style="ellipse;whiteSpace=wrap;html=1;aspect=fixed;" vertex="1" parent="1">
          <mxGeometry x="580" y="360" width="30" height="30" as="geometry" />
        </mxCell>
        <mxCell id="hGCilRiJ_WjDdyDnkMgZ-34" value="a" style="ellipse;whiteSpace=wrap;html=1;aspect=fixed;" vertex="1" parent="1">
          <mxGeometry x="550" y="410" width="30" height="30" as="geometry" />
        </mxCell>
        <mxCell id="hGCilRiJ_WjDdyDnkMgZ-35" value="" style="endArrow=none;html=1;rounded=0;entryX=0;entryY=1;entryDx=0;entryDy=0;exitX=0.5;exitY=0;exitDx=0;exitDy=0;" edge="1" parent="1" source="hGCilRiJ_WjDdyDnkMgZ-28" target="hGCilRiJ_WjDdyDnkMgZ-32">
          <mxGeometry width="50" height="50" relative="1" as="geometry">
            <mxPoint x="400" y="320" as="sourcePoint" />
            <mxPoint x="450" y="270" as="targetPoint" />
          </mxGeometry>
        </mxCell>
        <mxCell id="hGCilRiJ_WjDdyDnkMgZ-36" value="" style="endArrow=none;html=1;rounded=0;entryX=0;entryY=1;entryDx=0;entryDy=0;exitX=0;exitY=0.5;exitDx=0;exitDy=0;" edge="1" parent="1" source="hGCilRiJ_WjDdyDnkMgZ-29" target="hGCilRiJ_WjDdyDnkMgZ-30">
          <mxGeometry width="50" height="50" relative="1" as="geometry">
            <mxPoint x="510" y="375" as="sourcePoint" />
            <mxPoint x="545" y="320" as="targetPoint" />
          </mxGeometry>
        </mxCell>
        <mxCell id="hGCilRiJ_WjDdyDnkMgZ-37" value="" style="endArrow=none;html=1;rounded=0;exitX=0.5;exitY=0;exitDx=0;exitDy=0;entryX=1;entryY=1;entryDx=0;entryDy=0;" edge="1" parent="1" source="hGCilRiJ_WjDdyDnkMgZ-30" target="hGCilRiJ_WjDdyDnkMgZ-32">
          <mxGeometry width="50" height="50" relative="1" as="geometry">
            <mxPoint x="485" y="320" as="sourcePoint" />
            <mxPoint x="520" y="260" as="targetPoint" />
          </mxGeometry>
        </mxCell>
        <mxCell id="hGCilRiJ_WjDdyDnkMgZ-38" value="" style="endArrow=none;html=1;rounded=0;entryX=0;entryY=1;entryDx=0;entryDy=0;exitX=0.5;exitY=0;exitDx=0;exitDy=0;" edge="1" parent="1" source="hGCilRiJ_WjDdyDnkMgZ-34" target="hGCilRiJ_WjDdyDnkMgZ-33">
          <mxGeometry width="50" height="50" relative="1" as="geometry">
            <mxPoint x="550" y="402.5" as="sourcePoint" />
            <mxPoint x="585" y="347.5" as="targetPoint" />
          </mxGeometry>
        </mxCell>
        <mxCell id="hGCilRiJ_WjDdyDnkMgZ-39" value="" style="endArrow=none;html=1;rounded=0;entryX=1;entryY=1;entryDx=0;entryDy=0;exitX=0.5;exitY=0;exitDx=0;exitDy=0;" edge="1" parent="1" source="hGCilRiJ_WjDdyDnkMgZ-31" target="hGCilRiJ_WjDdyDnkMgZ-33">
          <mxGeometry width="50" height="50" relative="1" as="geometry">
            <mxPoint x="630" y="405" as="sourcePoint" />
            <mxPoint x="665" y="350" as="targetPoint" />
          </mxGeometry>
        </mxCell>
        <mxCell id="hGCilRiJ_WjDdyDnkMgZ-40" value="" style="endArrow=none;html=1;rounded=0;entryX=1;entryY=1;entryDx=0;entryDy=0;exitX=0.5;exitY=0;exitDx=0;exitDy=0;" edge="1" parent="1" source="hGCilRiJ_WjDdyDnkMgZ-33" target="hGCilRiJ_WjDdyDnkMgZ-30">
          <mxGeometry width="50" height="50" relative="1" as="geometry">
            <mxPoint x="515" y="350" as="sourcePoint" />
            <mxPoint x="550" y="295" as="targetPoint" />
          </mxGeometry>
        </mxCell>
      </root>
    </mxGraphModel>
  </diagram>
</mxfile>
